<?xml version="1.0" encoding="UTF-8"?>
<svg width="24px" height="24px" viewBox="0 0 24 24" version="1.1" xmlns="http://www.w3.org/2000/svg" xmlns:xlink="http://www.w3.org/1999/xlink">
    <!-- Generator: Sketch 52.6 (67491) - http://www.bohemiancoding.com/sketch -->
    <title>icon-search</title>
    <desc>Created with Sketch.</desc>
    <defs>
        <linearGradient x1="-1.11022302e-14%" y1="50%" x2="98.480401%" y2="50%" id="linearGradient-1">
            <stop stop-color="#CC2B27" offset="0%"></stop>
            <stop stop-color="#F5841F" offset="100%"></stop>
        </linearGradient>
    </defs>
    <g id="Symbols" stroke="none" stroke-width="1" fill="none" fill-rule="evenodd">
        <g id="Icon-/-Search" fill="url(#linearGradient-1)">
            <path d="M18.0033276,19.4829265 C16.1009641,21.0552635 13.6608095,22 11,22 C4.92486775,22 0,17.0751322 0,11 C0,4.92486775 4.92486775,0 11,0 C17.0751322,0 22,4.92486775 22,11 C22,13.6608095 21.0552635,16.1009641 19.4829265,18.0033276 C19.9224058,17.9748989 20.3714643,18.1286254 20.707346,18.4645071 L23.5354929,21.292654 C24.1548357,21.9119969 24.1548357,22.91615 23.5354929,23.5354929 C22.91615,24.1548357 21.9119969,24.1548357 21.292654,23.5354929 L18.4645071,20.707346 C18.1286254,20.3714643 17.9748989,19.9224058 18.0033276,19.4829265 Z M11,19.9047619 C15.9179642,19.9047619 19.9047619,15.9179642 19.9047619,11 C19.9047619,6.0820358 15.9179642,2.0952381 11,2.0952381 C6.0820358,2.0952381 2.0952381,6.0820358 2.0952381,11 C2.0952381,15.9179642 6.0820358,19.9047619 11,19.9047619 Z" id="icon-search"></path>
        </g>
    </g>
</svg>