<?xml version="1.0" encoding="UTF-8"?>
<svg width="8px" height="14px" viewBox="0 0 8 14" version="1.1" xmlns="http://www.w3.org/2000/svg" xmlns:xlink="http://www.w3.org/1999/xlink">
    <!-- Generator: Sketch 52.6 (67491) - http://www.bohemiancoding.com/sketch -->
    <title>icon-arrow-left-black</title>
    <desc>Created with Sketch.</desc>
    <g id="51-Degrees-Final-Artwork" stroke="none" stroke-width="1" fill="none" fill-rule="evenodd">
        <g id="Styles" transform="translate(-312.000000, -1804.000000)" fill="#252525">
            <path d="M312.284314,1804.30158 L312.284314,1804.30158 C312.670042,1803.90632 313.30316,1803.89859 313.698423,1804.28431 L319.643406,1810.08589 C320.038668,1810.47162 320.046398,1811.10474 319.66067,1811.5 C319.654986,1811.50583 319.649231,1811.51158 319.643406,1811.51726 L313.698423,1817.31884 C313.30316,1817.70457 312.670042,1817.69684 312.284314,1817.30158 L312.284314,1817.30158 C311.898587,1816.90632 311.906316,1816.2732 312.301578,1815.88747 L317.513185,1810.80158 L312.301578,1805.71569 C311.906316,1805.32996 311.898587,1804.69684 312.284314,1804.30158 Z" id="icon-arrow-left-black" transform="translate(315.972492, 1810.801578) scale(-1, 1) translate(-315.972492, -1810.801578) "></path>
        </g>
    </g>
</svg>